<?xml version="1.0" encoding="utf-8"?>
<!-- Generator: Adobe Illustrator 26.0.1, SVG Export Plug-In . SVG Version: 6.00 Build 0)  -->
<svg version="1.1" id="Layer_1" xmlns="http://www.w3.org/2000/svg" xmlns:xlink="http://www.w3.org/1999/xlink" x="0px" y="0px"
	 viewBox="0 0 19.5 49.7" style="enable-background:new 0 0 19.5 49.7;" xml:space="preserve">
<style type="text/css">
	.st0{fill:none;stroke:#F0FFF0;stroke-width:2.5;stroke-miterlimit:10;}
	.st1{fill:none;stroke:#268C43;stroke-width:2.5;stroke-linecap:round;stroke-miterlimit:10;}
	.st2{fill:#268C43;}
</style>
<path class="st0" d="M13.5,13.8v29.3c0,2.9-1.9,5.3-4.2,5.3H9c-2.3,0-4.2-2.4-4.2-5.3V13.8"/>
<g>
	<line class="st1" x1="9.1" y1="12.4" x2="9.1" y2="44.1"/>
	<path class="st2" d="M0,5c6-2,11.3,7,8.5,12c-0.3-1.3-0.7-2.6-1.2-3.8C5.7,9.8,3.8,6.3,0,5L0,5z"/>
	<path class="st2" d="M19.5,0.6c-5.5,0.2-7.9,5.5-8.8,10.2c-0.3,1.7-0.5,3.5-0.4,5.2C5.9,10.1,11-3,19.5,0.6z"/>
</g>
</svg>
